HIERARCHY
ROOT Hips
{
    OFFSET 0.0 0.0 0.0
    CHANNELS 6 Xposition Yposition Zposition Zrotation Xrotation Yrotation
    JOINT Spine
    {
        OFFSET 0.0 5.0 0.0
        CHANNELS 3 Zrotation Xrotation Yrotation
        JOINT Chest
        {
            OFFSET 0.0 5.0 0.0
            CHANNELS 3 Zrotation Xrotation Yrotation
            JOINT Neck
            {
                OFFSET 0.0 8.0 0.0
                CHANNELS 3 Zrotation Xrotation Yrotation
                JOINT Head
                {
                    OFFSET 0.0 5.0 0.0
                    CHANNELS 3 Zrotation Xrotation Yrotation
                    End Site
                    {
                        OFFSET 0.0 3.0 0.0
                    }
                }
            }
            JOINT LeftShoulder
            {
                OFFSET -5.0 0.0 0.0
                CHANNELS 3 Zrotation Xrotation Yrotation
                JOINT LeftArm
                {
                    OFFSET 0.0 -10.0 0.0
                    CHANNELS 3 Zrotation Xrotation Yrotation
                    JOINT LeftForeArm
                    {
                        OFFSET 0.0 -10.0 0.0
                        CHANNELS 3 Zrotation Xrotation Yrotation
                        End Site
                        {
                            OFFSET 0.0 -3.0 0.0
                        }
                    }
                }
            }
        }
    }
}

MOTION
Frames: 25
Frame Time: 0.033333
960.000000 445.000000 100.790160 0.000000 0.000000 0.000000 0.000000 0.000000 0.000000 23.025492 -25.295622 0.000000 180.000000 3.302411 0.000000 21.801409 -1.657414 -0.000000 158.198591 -0.327271 30.000000 15.945396 -2.026203 0.000000 18.000000 0.451830 0.000000
1691.525230 140.756605 103.584937 0.000000 0.000000 0.000000 0.000000 0.000000 0.000000 -163.376529 -4.837527 4.973798 16.623471 10.159044 4.973798 -171.853121 -3.801579 3.759997 99.744051 12.125198 29.763441 -171.126653 -3.642005 -3.759997 0.673538 0.343256 0.313953
1636.048050 128.802021 110.383470 0.000000 0.000000 0.000000 0.000000 0.000000 0.000000 157.904128 29.343178 9.635073 -22.095872 2.954402 9.635073 -171.936471 -4.018178 7.460697 -143.675701 -5.110885 29.057495 -173.500805 -3.902193 -7.460697 0.570999 0.452938 0.626666
1578.156967 80.474526 115.408841 0.000000 0.000000 0.000000 0.000000 0.000000 0.000000 -139.519796 -0.911191 13.690942 40.480204 3.329729 13.690942 -174.507724 -3.923769 11.043737 119.111399 7.781805 27.893295 -173.607258 -4.412706 -11.043737 0.461920 0.461520 0.936907
960.418757 444.998421 122.875096 0.000000 0.000000 0.000000 0.000000 0.000000 0.000000 25.077893 4.642001 16.886559 180.000000 12.255029 16.886559 23.861935 -0.587729 14.452610 156.138065 11.062777 26.289200 17.903699 -8.142497 -14.452610 18.000000 0.420569 1.243449
960.523360 444.997533 118.364597 0.000000 0.000000 0.000000 0.000000 0.000000 0.000000 25.638906 -28.493609 19.021130 180.000000 12.998579 19.021130 24.425035 -4.016674 17.633558 155.574965 14.346248 24.270510 18.452907 -6.696893 -17.633558 18.000000 0.042326 1.545085
960.627905 444.996447 124.731760 0.000000 0.000000 0.000000 0.000000 0.000000 0.000000 26.219073 -4.942410 19.960535 180.000000 -0.772731 19.960535 25.006291 -2.880983 20.536413 154.993709 2.984521 21.869059 19.024920 0.037593 -20.536413 18.000000 -0.621526 1.840623
1126.242828 420.359820 131.471304 0.000000 0.000000 0.000000 0.000000 0.000000 0.000000 31.410514 8.829492 19.645745 -148.589486 -0.150969 19.645745 32.280463 -0.834664 23.115397 -131.603972 -6.379350 19.122720 45.585331 0.897860 -23.115397 -13.449727 0.050799 2.128896
1257.895088 650.549197 129.618914 0.000000 0.000000 0.000000 0.000000 0.000000 0.000000 25.073180 -25.041051 18.096541 -154.926820 7.855614 18.096541 46.260945 -7.289132 25.329838 -154.651428 -5.456037 16.074804 27.339487 4.748183 -25.329838 -13.619892 2.308024 2.408768
960.941083 444.992008 125.175105 0.000000 0.000000 0.000000 0.000000 0.000000 0.000000 28.072001 -2.917614 15.410265 180.000000 -3.995579 15.410265 26.849221 0.629534 27.144812 153.150779 3.467927 12.773379 20.864045 -3.954847 -27.144812 18.000000 -0.169507 2.679134
1163.815842 547.748709 167.327827 0.000000 0.000000 0.000000 0.000000 0.000000 0.000000 117.162728 8.568441 11.755705 -62.837272 -12.506899 11.755705 102.363764 -1.735466 28.531695 -47.376450 -5.374173 9.270510 104.768601 -0.764353 -28.531695 -6.003489 -0.046508 2.938926
961.149372 444.988063 141.950967 0.000000 0.000000 0.000000 0.000000 0.000000 0.000000 29.395983 0.104146 7.362491 180.000000 -15.048577 7.362491 28.146217 -0.226165 29.468618 151.853783 4.303027 5.621439 22.170006 -12.299108 -29.468618 18.000000 0.624080 3.187120
1136.717377 590.104480 126.447009 0.000000 0.000000 0.000000 0.000000 0.000000 0.000000 115.752126 0.226047 2.506665 -64.247874 -1.805753 2.506665 73.638146 0.462808 29.940802 -21.842452 2.168173 1.883716 75.369282 -3.543277 -29.940802 -6.767207 0.338685 3.422736
1163.079758 634.077559 137.803036 0.000000 0.000000 0.000000 0.000000 0.000000 0.000000 132.174340 -1.762153 -2.506665 -47.825660 -3.729757 -2.506665 94.255711 7.075513 29.940802 -149.364979 -6.691972 -1.883716 30.021641 5.695401 -29.940802 -5.096180 -0.332234 3.644843
961.460830 444.980668 123.237402 0.000000 0.000000 0.000000 0.000000 0.000000 0.000000 31.497152 7.725954 -7.362491 180.000000 10.767406 -7.362491 30.152455 -13.521183 29.468618 149.847545 2.232719 -5.621439 24.175589 -1.679135 -29.468618 18.000000 -0.280673 3.852566
1097.449951 565.089898 148.491882 0.000000 0.000000 0.000000 0.000000 0.000000 0.000000 -119.219568 7.453988 -11.755705 60.780432 0.011221 -11.755705 -150.180642 -7.735712 28.531695 48.804955 -4.612767 -9.270510 -149.874178 -6.177925 -28.531695 2.713854 0.642806 4.045085
1114.140244 528.302071 154.973979 0.000000 0.000000 0.000000 0.000000 0.000000 0.000000 -142.671523 -9.991665 -15.410265 37.328477 2.905369 -15.410265 -177.395681 0.937523 27.144812 34.687329 7.939743 -12.773379 161.894167 -2.741625 -27.144812 -0.910956 -0.301541 4.221640
1116.433640 479.728639 173.571557 0.000000 0.000000 0.000000 0.000000 0.000000 0.000000 -102.267481 1.951059 -18.096541 77.732519 0.639146 -18.096541 -163.695626 -4.267477 25.329838 38.575767 2.889528 -16.074804 -176.001122 0.094896 -25.329838 0.706594 -0.069444 4.381533
1135.931282 466.493965 156.215991 0.000000 0.000000 0.000000 0.000000 0.000000 0.000000 -112.868406 15.661320 -19.645745 67.131594 -0.488552 -19.645745 -159.517862 -1.059743 23.115397 36.204678 -1.602458 -19.122720 -154.426613 -6.002914 -23.115397 2.428729 0.521446 4.524135
1141.618767 467.420679 149.084950 0.000000 0.000000 0.000000 0.000000 0.000000 0.000000 -123.086385 13.655185 -19.960535 56.913615 -5.510343 -19.960535 -154.885724 2.758230 20.536413 36.481623 -2.550589 -21.869059 -153.965441 -5.564249 -20.536413 2.446728 0.516359 4.648882
1150.647926 469.370956 147.569456 0.000000 0.000000 0.000000 0.000000 0.000000 0.000000 -43.953779 17.948926 -19.021130 136.046221 -29.039260 -19.021130 -154.327268 -6.400065 17.633558 60.745168 -4.699648 -24.270510 -153.350642 -6.400707 -17.633558 2.386216 0.677145 4.755283
1151.529922 496.420240 147.298868 0.000000 0.000000 0.000000 0.000000 0.000000 0.000000 -116.362129 2.624397 -16.886559 63.637871 1.282349 -16.886559 -149.081043 -2.746369 14.452610 35.941860 -3.578112 -26.289200 -156.847177 0.993483 -14.452610 2.056513 0.012106 4.842916
1148.402367 515.713574 154.801222 0.000000 0.000000 0.000000 0.000000 0.000000 0.000000 -118.252650 11.975553 -13.690942 61.747350 -6.681480 -13.690942 -138.082896 -1.524169 11.043737 -156.312677 -7.356718 -27.893295 21.649626 9.519449 -11.043737 2.962417 0.087000 4.911436
1175.363617 533.368646 143.560571 0.000000 0.000000 0.000000 0.000000 0.000000 0.000000 -95.476638 -8.350503 -9.635073 84.523362 0.657523 -9.635073 -113.907461 -0.234115 7.460697 -155.995907 -6.452789 -29.057495 12.512064 7.918114 -7.460697 -16.748794 -0.791811 4.960574
1199.533310 485.991104 124.657235 0.000000 0.000000 0.000000 0.000000 0.000000 0.000000 -100.003195 -15.721011 -4.973798 79.996805 10.913170 -4.973798 -86.083188 -1.521965 3.759997 38.843754 4.884437 -29.763441 -106.539452 0.327487 -3.759997 6.197806 -0.456307 4.990134
